<svg xmlns="http://www.w3.org/2000/svg" width="14011" height="2359" fill="none"><g clip-path="url(#a)"><path stroke="#2D0591" stroke-dasharray="36.74 29.39" stroke-width="7.348" d="M1091.56 2303.4c602.94 0 1091.72-488.78 1091.72-1091.71 0-602.943-488.78-1091.721-1091.72-1091.721C488.622 119.969-.156 608.747-.156 1211.69c0 602.93 488.778 1091.71 1091.716 1091.71Z" opacity=".18"/><path stroke="#FF5540" stroke-width="7.348" d="M1091.59 2099.85c490.53 0 888.18-397.65 888.18-888.17 0-490.527-397.65-888.177-888.18-888.177-490.526 0-888.176 397.65-888.176 888.177 0 490.52 397.65 888.17 888.176 888.17Z" opacity=".12"/><path fill="#FFF2EE" d="M1091.48 1933.33c398.56 0 721.65-323.09 721.65-721.64 0-398.552-323.09-721.642-721.65-721.642-398.547 0-721.636 323.09-721.636 721.642 0 398.55 323.089 721.64 721.636 721.64Z"/><path stroke="#FF5540" stroke-linecap="round" stroke-linejoin="round" stroke-width="23.515" d="M1239.52 897.14H943.467c-61.316 0-111.022 49.706-111.022 111.02v296.06c0 61.31 49.706 111.02 111.022 111.02h296.053c61.32 0 111.03-49.71 111.03-111.02v-296.06c0-61.314-49.71-111.02-111.03-111.02Z"/><path fill="#FF5540" d="M1151.71 823.131h-120.27c-28.1 0-50.885 22.782-50.885 50.885 0 28.103 22.785 50.885 50.885 50.885h120.27c28.11 0 50.89-22.782 50.89-50.885 0-28.103-22.78-50.885-50.89-50.885Z"/><path stroke="#FF5540" stroke-linecap="round" stroke-linejoin="round" stroke-width="24.985" d="m962.016 1211.72 92.514 111.02 203.54-240.54"/><path fill="#DC311C" d="M1091.51 411.39c28.1 0 50.88-22.782 50.88-50.885 0-28.103-22.78-50.885-50.88-50.885s-50.89 22.782-50.89 50.885c0 28.103 22.79 50.885 50.89 50.885Z" opacity=".85"/><path fill="#DC311C" d="M1831.68 1674.27c20.44 0 37.01-16.57 37.01-37.01 0-20.44-16.57-37.01-37.01-37.01-20.44 0-37.01 16.57-37.01 37.01 0 20.44 16.57 37.01 37.01 37.01Zm-1480.282 0c20.438 0 37.007-16.57 37.007-37.01 0-20.44-16.569-37.01-37.007-37.01-20.439 0-37.007 16.57-37.007 37.01 0 20.44 16.568 37.01 37.007 37.01Z" opacity=".65"/><path stroke="#FF5540" stroke-dasharray="22.05 22.05" stroke-width="8.818" d="M1091.59 490.048v148.029" opacity=".35"/><path stroke="#FF5540" stroke-dasharray="22.05 22.05" stroke-width="8.818" d="m1350.61 1415.22 314.56 148.03m-832.765-148.03-314.561 148.03" opacity=".25"/><path fill="#CE3F2E" d="m8852.48 1510-145.85-264.74h-40.96V1510h-170.83V808.702h286.71c55.28 0 102.24 9.657 140.86 28.971 39.3 19.314 68.6 45.954 87.92 79.92 19.31 33.3 28.97 70.596 28.97 111.887 0 46.62-13.32 88.25-39.96 124.88-25.98 36.63-64.61 62.6-115.89 77.92L9045.29 1510h-192.81Zm-186.81-385.61h105.89c31.31 0 54.62-7.66 69.93-22.98 15.99-15.32 23.98-36.96 23.98-64.94 0-26.64-7.99-47.615-23.98-62.933-15.31-15.318-38.62-22.977-69.93-22.977h-105.89v173.83Zm651.69-178.825v141.855h228.77v131.87h-228.77v153.85h258.74V1510h-429.57V808.702h429.57v136.863h-258.74Zm632.38-136.863c73.96 0 138.56 14.652 193.86 43.956 55.2 29.304 97.9 70.596 127.8 123.876 30.7 52.616 46 113.556 46 182.816 0 68.6-15.3 129.54-46 182.82-29.9 53.28-72.9 94.57-128.8 123.87-55.3 29.31-119.6 43.96-192.86 43.96h-262.73V808.702h262.73Zm-10.98 553.448c64.64 0 114.84-17.65 150.84-52.95 36-35.3 54-85.25 54-149.85s-18-114.88-54-150.85c-36-35.962-86.2-53.944-150.84-53.944h-80.92v407.594h80.92Zm644.94-416.585v141.855h228.7v131.87h-228.7v153.85h258.7V1510h-429.6V808.702h429.6v136.863h-258.7Zm623.4 571.425c-51.3 0-97.3-8.32-137.9-24.97-40.6-16.65-73.3-41.29-97.9-73.93-24-32.63-36.6-71.93-38-117.88h181.9c2.6 25.97 11.6 45.95 26.9 59.94 15.3 13.32 35.3 19.98 60 19.98 25.3 0 45.3-5.66 59.9-16.98 14.7-11.99 22-28.31 22-48.95 0-17.32-6-31.64-18-42.96-11.3-11.32-25.6-20.65-43-27.97-16.6-7.33-40.6-15.65-71.9-24.98-45.3-13.98-82.2-27.97-110.9-41.96-28.6-13.98-53.2-34.63-73.9-61.93-20.6-27.31-31-62.94-31-106.9 0-65.265 23.7-116.214 71-152.844 47.3-37.296 108.9-55.944 184.8-55.944 77.2 0 139.5 18.648 186.8 55.944 47.3 36.63 72.6 87.912 75.9 153.844H11269c-1.3-22.642-9.7-40.291-25-52.945-15.3-13.32-34.9-19.98-58.9-19.98-20.7 0-37.3 5.661-50 16.983-12.6 10.656-18.9 26.307-18.9 46.953 0 22.639 10.6 40.289 31.9 52.949 21.3 12.65 54.6 26.3 99.9 40.96 45.3 15.31 81.9 29.97 109.9 43.95 28.7 13.99 53.3 34.3 73.9 60.94 20.7 26.64 31 60.94 31 102.9 0 39.96-10.3 76.26-31 108.89-19.9 32.63-49.2 58.61-87.9 77.92-38.6 19.32-84.2 28.97-136.8 28.97Zm531.7-708.288V1510h-170.9V808.702h170.9Zm589.3 221.778c-12.7-23.31-31-40.959-54.9-52.947-23.4-12.654-51-18.981-83-18.981-55.2 0-99.5 18.315-132.8 54.948-33.3 35.96-50 84.25-50 144.85 0 64.6 17.3 115.22 52 151.85 35.3 35.96 83.5 53.95 144.8 53.95 42 0 77.3-10.66 105.9-31.97 29.3-21.31 50.6-51.95 64-91.91h-216.8V1114.4h371.6v158.84c-12.7 42.62-34.3 82.25-64.9 118.88-30 36.63-68.3 66.26-114.9 88.91-46.6 22.64-99.3 33.97-157.9 33.97-69.2 0-131.2-14.99-185.8-44.96-53.9-30.64-96.2-72.93-126.9-126.87-29.9-53.95-44.9-115.55-44.9-184.82 0-69.26 15-130.87 44.9-184.813 30.7-54.612 73-96.903 126.9-126.873 54-30.636 115.6-45.954 184.8-45.954 84 0 154.5 20.313 211.8 60.939 58 40.626 96.3 96.903 114.9 168.831h-188.8Zm922.8 479.52h-170.8l-285.7-432.57V1510h-170.9V808.702h170.9l285.7 434.568V808.702h170.8V1510Z"/><path stroke="#260088" stroke-dasharray="36.74 29.39" stroke-width="7.348" d="M1091.8 2183.9c603.06 0 1091.95-488.88 1091.95-1091.95C2183.75 488.884 1694.86 0 1091.8 0 488.727 0-.156 488.884-.156 1091.95c0 603.07 488.883 1091.95 1091.956 1091.95Z" opacity=".18"/><path stroke="#341977" stroke-width="7.396" d="M1091.78 2101.49c494.97 0 896.22-400.1 896.22-893.65 0-493.548-401.25-893.649-896.22-893.649-494.972 0-896.225 400.101-896.225 893.649 0 493.55 401.253 893.65 896.225 893.65Z" opacity=".12"/><path fill="#1A1A1A" d="M3264.15 738.524V1444H3092.3v-423.08L2934.53 1444h-138.69l-158.78-424.09V1444h-171.85V738.524h203l197.98 488.406 195.97-488.406h201.99Zm696.4 144.713-351.73 827.073h-184.91l128.63-285.4-228.12-541.673h191.94L3646 1233.97l128.63-350.733h185.92Zm33 207.023c0-69.68 15.07-131.651 45.22-185.919 30.15-54.937 72.02-97.48 125.62-127.628 54.27-30.819 115.57-46.228 183.91-46.228 83.74 0 155.43 22.109 215.06 66.327 59.62 44.217 99.49 104.514 119.58 180.891h-188.93c-14.07-29.479-34.16-51.923-60.29-67.332-25.46-15.409-54.61-23.114-87.43-23.114-52.93 0-95.81 18.424-128.64 55.272-32.83 36.849-49.24 86.091-49.24 147.731 0 61.63 16.41 110.88 49.24 147.73 32.83 36.84 75.71 55.27 128.64 55.27 32.82 0 61.97-7.71 87.43-23.12 26.13-15.41 46.22-37.85 60.29-67.33h188.93c-20.09 76.38-59.96 136.68-119.58 180.89-59.63 43.55-131.32 65.32-215.06 65.32-68.34 0-129.64-15.07-183.91-45.22-53.6-30.82-95.47-73.36-125.62-127.63-30.15-54.26-45.22-116.24-45.22-185.91Zm1049.89 361.78c-54.94 0-104.52-11.72-148.73-35.17-43.55-23.45-78.05-56.95-103.51-100.5-24.79-43.55-37.19-94.46-37.19-152.75 0-57.62 12.73-108.2 38.19-151.75 25.46-44.217 60.3-78.05 104.52-101.499 44.21-23.449 93.79-35.173 148.73-35.173 54.94 0 104.51 11.724 148.73 35.173 44.22 23.449 79.06 57.282 104.52 101.499 25.46 43.55 38.19 94.13 38.19 151.75 0 57.62-13.07 108.53-39.2 152.75-25.46 43.55-60.63 77.05-105.52 100.5-44.22 23.45-93.79 35.17-148.73 35.17Zm0-148.73c32.83 0 60.63-12.06 83.41-36.18 23.45-24.12 35.17-58.62 35.17-103.51 0-44.89-11.39-79.39-34.16-103.51-22.11-24.12-49.58-36.18-82.41-36.18-33.5 0-61.3 12.06-83.41 36.18-22.11 23.45-33.16 57.95-33.16 103.51 0 44.89 10.71 79.39 32.15 103.51 22.11 24.12 49.58 36.18 82.41 36.18Zm938.34-420.073V1444h-171.85v-76.38c-17.41 24.79-41.2 44.89-71.35 60.3-29.48 14.74-62.3 22.11-98.48 22.11-42.88 0-80.73-9.38-113.56-28.14-32.83-19.43-58.29-47.23-76.38-83.41-18.09-36.18-27.13-78.72-27.13-127.63V883.237h170.84v304.503c0 37.52 9.71 66.66 29.14 87.43 19.43 20.77 45.56 31.15 78.39 31.15 33.5 0 59.96-10.38 79.39-31.15 19.43-20.77 29.14-49.91 29.14-87.43V883.237h171.85Zm295.28 93.461c20.1-30.819 45.23-54.938 75.38-72.357 30.14-18.089 63.64-27.133 100.49-27.133V1059.1h-47.23c-42.88 0-75.04 9.38-96.48 28.14-21.44 18.09-32.16 50.25-32.16 96.48V1444h-171.84V883.237h171.84v93.461Zm486.13 475.342c-48.9 0-92.45-8.37-130.64-25.12-38.19-16.75-68.34-39.53-90.45-68.34-22.1-29.48-34.5-62.31-37.18-98.49h169.84c2.01 19.43 11.05 35.18 27.13 47.24 16.08 12.06 35.84 18.09 59.29 18.09 21.44 0 37.86-4.02 49.25-12.06 12.06-8.71 18.09-19.77 18.09-33.17 0-16.08-8.38-27.8-25.13-35.17-16.75-8.04-43.88-16.75-81.4-26.13-40.2-9.38-73.7-19.09-100.49-29.14-26.8-10.72-49.92-27.14-69.35-49.25-19.43-22.77-29.14-53.26-29.14-91.45 0-32.15 8.71-61.298 26.13-87.426 18.09-26.799 44.22-47.903 78.38-63.312 34.84-15.41 76.05-23.114 123.61-23.114 70.35 0 125.62 17.419 165.82 52.257 40.87 34.839 64.32 81.065 70.35 138.685h-158.78c-2.68-19.43-11.39-34.84-26.13-46.23-14.07-11.39-32.83-17.08-56.28-17.08-20.1 0-35.51 4.02-46.23 12.06-10.72 7.37-16.08 17.75-16.08 31.15 0 16.08 8.38 28.14 25.13 36.18 17.42 8.04 44.21 16.08 80.39 24.12 41.54 10.72 75.37 21.44 101.5 32.15 26.13 10.05 48.91 26.8 68.34 50.25 20.1 22.78 30.48 53.6 31.15 92.46 0 32.83-9.38 62.3-28.14 88.43-18.09 25.46-44.55 45.56-79.39 60.3-34.17 14.74-74.03 22.11-119.59 22.11Zm860.86-297.47c0 16.08-1 32.83-3.01 50.25h-388.92c2.68 34.84 13.74 61.64 33.16 80.4 20.1 18.09 44.56 27.13 73.37 27.13 42.87 0 72.69-18.09 89.44-54.27h182.9c-9.38 36.85-26.47 70.02-51.26 99.49-24.11 29.48-54.6 52.6-91.45 69.35-36.84 16.75-78.05 25.12-123.6 25.12-54.94 0-103.85-11.72-146.73-35.17-42.88-23.45-76.37-56.95-100.49-100.5-24.12-43.55-36.18-94.46-36.18-152.75 0-58.29 11.72-109.21 35.17-152.75 24.12-43.552 57.62-77.05 100.5-100.499 42.88-23.449 92.12-35.173 147.73-35.173 54.26 0 102.5 11.389 144.71 34.168 42.21 22.779 75.03 55.272 98.48 97.484 24.12 42.2 36.18 91.45 36.18 147.72Zm-175.86-45.22c0-29.48-10.05-52.93-30.15-70.35-20.1-17.41-45.23-26.12-75.37-26.12-28.81 0-53.27 8.37-73.37 25.12-19.42 16.75-31.48 40.53-36.17 71.35h215.06Zm494.64 342.69c-48.9 0-92.45-8.37-130.64-25.12-38.19-16.75-68.34-39.53-90.45-68.34-22.1-29.48-34.5-62.31-37.18-98.49h169.84c2.01 19.43 11.05 35.18 27.13 47.24 16.08 12.06 35.84 18.09 59.29 18.09 21.44 0 37.86-4.02 49.25-12.06 12.06-8.71 18.08-19.77 18.08-33.17 0-16.08-8.37-27.8-25.12-35.17-16.75-8.04-43.88-16.75-81.4-26.13-40.2-9.38-73.7-19.09-100.49-29.14-26.8-10.72-49.92-27.14-69.35-49.25-19.43-22.77-29.14-53.26-29.14-91.45 0-32.15 8.71-61.298 26.13-87.426 18.09-26.799 44.22-47.903 78.38-63.312 34.84-15.41 76.05-23.114 123.61-23.114 70.35 0 125.62 17.419 165.82 52.257 40.87 34.839 64.32 81.065 70.35 138.685h-158.79c-2.67-19.43-11.38-34.84-26.12-46.23-14.07-11.39-32.83-17.08-56.28-17.08-20.1 0-35.51 4.02-46.23 12.06-10.72 7.37-16.08 17.75-16.08 31.15 0 16.08 8.38 28.14 25.13 36.18 17.41 8.04 44.21 16.08 80.39 24.12 41.54 10.72 75.37 21.44 101.5 32.15 26.13 10.05 48.91 26.8 68.34 50.25 20.1 22.78 30.48 53.6 31.15 92.46 0 32.83-9.38 62.3-28.14 88.43-18.09 25.46-44.55 45.56-79.39 60.3-34.17 14.74-74.03 22.11-119.59 22.11Z"/></g><defs><clipPath id="a"><path fill="#fff" d="M0 0h14011v2359H0z"/></clipPath></defs></svg>