<svg width="453" height="292" viewBox="0 0 453 292" fill="none" xmlns="http://www.w3.org/2000/svg">
<g clip-path="url(#clip0_1209_15653)">
<g filter="url(#filter0_d_1209_15653)">
<rect width="453" height="292" rx="20" fill="white"/>
</g>
<path d="M46 38V46H54" stroke="black" stroke-width="2" stroke-linecap="round" stroke-linejoin="round"/>
<path d="M46.0001 59.3327C53.3641 59.3327 59.3334 53.3633 59.3334 45.9993C59.3334 38.6353 53.3641 32.666 46.0001 32.666C38.6361 32.666 32.6667 38.6353 32.6667 45.9993C32.6667 53.3633 38.6361 59.3327 46.0001 59.3327Z" stroke="black" stroke-width="2" stroke-linecap="round" stroke-linejoin="round"/>
<path d="M86.512 38.248C88.272 38.248 89.816 38.592 91.144 39.28C92.488 39.968 93.52 40.952 94.24 42.232C94.976 43.496 95.344 44.968 95.344 46.648C95.344 48.328 94.976 49.8 94.24 51.064C93.52 52.312 92.488 53.28 91.144 53.968C89.816 54.656 88.272 55 86.512 55H80.656V38.248H86.512ZM86.392 52.144C88.152 52.144 89.512 51.664 90.472 50.704C91.432 49.744 91.912 48.392 91.912 46.648C91.912 44.904 91.432 43.544 90.472 42.568C89.512 41.576 88.152 41.08 86.392 41.08H84.016V52.144H86.392ZM110.411 41.704V55H107.027V53.32C106.595 53.896 106.027 54.352 105.323 54.688C104.635 55.008 103.883 55.168 103.067 55.168C102.027 55.168 101.107 54.952 100.307 54.52C99.5071 54.072 98.8751 53.424 98.4111 52.576C97.9631 51.712 97.7391 50.688 97.7391 49.504V41.704H101.099V49.024C101.099 50.08 101.363 50.896 101.891 51.472C102.419 52.032 103.139 52.312 104.051 52.312C104.979 52.312 105.707 52.032 106.235 51.472C106.763 50.896 107.027 50.08 107.027 49.024V41.704H110.411ZM126.086 48.064C126.086 48.544 126.054 48.976 125.99 49.36H116.27C116.35 50.32 116.686 51.072 117.278 51.616C117.87 52.16 118.598 52.432 119.462 52.432C120.71 52.432 121.598 51.896 122.126 50.824H125.75C125.366 52.104 124.63 53.16 123.542 53.992C122.454 54.808 121.118 55.216 119.534 55.216C118.254 55.216 117.102 54.936 116.078 54.376C115.07 53.8 114.278 52.992 113.702 51.952C113.142 50.912 112.862 49.712 112.862 48.352C112.862 46.976 113.142 45.768 113.702 44.728C114.262 43.688 115.046 42.888 116.054 42.328C117.062 41.768 118.222 41.488 119.534 41.488C120.798 41.488 121.926 41.76 122.918 42.304C123.926 42.848 124.702 43.624 125.246 44.632C125.806 45.624 126.086 46.768 126.086 48.064ZM122.606 47.104C122.59 46.24 122.278 45.552 121.67 45.04C121.062 44.512 120.318 44.248 119.438 44.248C118.606 44.248 117.902 44.504 117.326 45.016C116.766 45.512 116.422 46.208 116.294 47.104H122.606ZM133.394 48.304C133.394 46.96 133.658 45.768 134.186 44.728C134.73 43.688 135.466 42.888 136.394 42.328C137.322 41.768 138.354 41.488 139.49 41.488C140.354 41.488 141.178 41.68 141.962 42.064C142.746 42.432 143.37 42.928 143.834 43.552V37.24H147.242V55H143.834V53.032C143.418 53.688 142.834 54.216 142.082 54.616C141.33 55.016 140.458 55.216 139.466 55.216C138.346 55.216 137.322 54.928 136.394 54.352C135.466 53.776 134.73 52.968 134.186 51.928C133.658 50.872 133.394 49.664 133.394 48.304ZM143.858 48.352C143.858 47.536 143.698 46.84 143.378 46.264C143.058 45.672 142.626 45.224 142.082 44.92C141.538 44.6 140.954 44.44 140.33 44.44C139.706 44.44 139.13 44.592 138.602 44.896C138.074 45.2 137.642 45.648 137.306 46.24C136.986 46.816 136.826 47.504 136.826 48.304C136.826 49.104 136.986 49.808 137.306 50.416C137.642 51.008 138.074 51.464 138.602 51.784C139.146 52.104 139.722 52.264 140.33 52.264C140.954 52.264 141.538 52.112 142.082 51.808C142.626 51.488 143.058 51.04 143.378 50.464C143.698 49.872 143.858 49.168 143.858 48.352ZM149.659 48.304C149.659 46.96 149.923 45.768 150.451 44.728C150.995 43.688 151.723 42.888 152.635 42.328C153.563 41.768 154.595 41.488 155.731 41.488C156.723 41.488 157.587 41.688 158.323 42.088C159.075 42.488 159.675 42.992 160.123 43.6V41.704H163.507V55H160.123V53.056C159.691 53.68 159.091 54.2 158.323 54.616C157.571 55.016 156.699 55.216 155.707 55.216C154.587 55.216 153.563 54.928 152.635 54.352C151.723 53.776 150.995 52.968 150.451 51.928C149.923 50.872 149.659 49.664 149.659 48.304ZM160.123 48.352C160.123 47.536 159.963 46.84 159.643 46.264C159.323 45.672 158.891 45.224 158.347 44.92C157.803 44.6 157.219 44.44 156.595 44.44C155.971 44.44 155.395 44.592 154.867 44.896C154.339 45.2 153.907 45.648 153.571 46.24C153.251 46.816 153.091 47.504 153.091 48.304C153.091 49.104 153.251 49.808 153.571 50.416C153.907 51.008 154.339 51.464 154.867 51.784C155.411 52.104 155.987 52.264 156.595 52.264C157.219 52.264 157.803 52.112 158.347 51.808C158.891 51.488 159.323 51.04 159.643 50.464C159.963 49.872 160.123 49.168 160.123 48.352ZM170.701 44.464V50.896C170.701 51.344 170.805 51.672 171.013 51.88C171.237 52.072 171.605 52.168 172.117 52.168H173.677V55H171.565C168.733 55 167.317 53.624 167.317 50.872V44.464H165.733V41.704H167.317V38.416H170.701V41.704H173.677V44.464H170.701ZM188.454 48.064C188.454 48.544 188.422 48.976 188.358 49.36H178.638C178.718 50.32 179.054 51.072 179.646 51.616C180.238 52.16 180.966 52.432 181.83 52.432C183.078 52.432 183.966 51.896 184.494 50.824H188.118C187.734 52.104 186.998 53.16 185.91 53.992C184.822 54.808 183.486 55.216 181.902 55.216C180.622 55.216 179.47 54.936 178.446 54.376C177.438 53.8 176.646 52.992 176.07 51.952C175.51 50.912 175.229 49.712 175.229 48.352C175.229 46.976 175.51 45.768 176.07 44.728C176.63 43.688 177.414 42.888 178.422 42.328C179.43 41.768 180.59 41.488 181.902 41.488C183.166 41.488 184.294 41.76 185.286 42.304C186.294 42.848 187.07 43.624 187.614 44.632C188.174 45.624 188.454 46.768 188.454 48.064ZM184.974 47.104C184.958 46.24 184.646 45.552 184.038 45.04C183.43 44.512 182.686 44.248 181.806 44.248C180.974 44.248 180.27 44.504 179.694 45.016C179.134 45.512 178.79 46.208 178.662 47.104H184.974Z" fill="black"/>
<path d="M55.08 117H49.608L40.456 103.144V117H34.984V94.536H40.456L49.608 108.456V94.536H55.08V117ZM67.1745 117.256C65.4252 117.256 63.8465 116.883 62.4385 116.136C61.0518 115.389 59.9532 114.323 59.1425 112.936C58.3532 111.549 57.9585 109.928 57.9585 108.072C57.9585 106.237 58.3638 104.627 59.1745 103.24C59.9852 101.832 61.0945 100.755 62.5025 100.008C63.9105 99.2613 65.4892 98.888 67.2385 98.888C68.9878 98.888 70.5665 99.2613 71.9745 100.008C73.3825 100.755 74.4918 101.832 75.3025 103.24C76.1132 104.627 76.5185 106.237 76.5185 108.072C76.5185 109.907 76.1025 111.528 75.2705 112.936C74.4598 114.323 73.3398 115.389 71.9105 116.136C70.5025 116.883 68.9238 117.256 67.1745 117.256ZM67.1745 112.52C68.2198 112.52 69.1052 112.136 69.8305 111.368C70.5772 110.6 70.9505 109.501 70.9505 108.072C70.9505 106.643 70.5878 105.544 69.8625 104.776C69.1585 104.008 68.2838 103.624 67.2385 103.624C66.1718 103.624 65.2865 104.008 64.5825 104.776C63.8785 105.523 63.5265 106.621 63.5265 108.072C63.5265 109.501 63.8678 110.6 64.5505 111.368C65.2545 112.136 66.1292 112.52 67.1745 112.52ZM87.4535 111.88L91.3255 99.144H97.1495L90.8135 117H84.0615L77.7255 99.144H83.5815L87.4535 111.88ZM105.498 112.616C106.223 112.04 106.554 111.773 106.49 111.816C108.581 110.088 110.223 108.669 111.418 107.56C112.634 106.451 113.658 105.288 114.49 104.072C115.322 102.856 115.738 101.672 115.738 100.52C115.738 99.6453 115.535 98.9627 115.13 98.472C114.725 97.9813 114.117 97.736 113.306 97.736C112.495 97.736 111.855 98.0453 111.386 98.664C110.938 99.2613 110.714 100.115 110.714 101.224H105.434C105.477 99.4107 105.861 97.896 106.586 96.68C107.333 95.464 108.303 94.568 109.498 93.992C110.714 93.416 112.058 93.128 113.53 93.128C116.069 93.128 117.978 93.7787 119.258 95.08C120.559 96.3813 121.21 98.0773 121.21 100.168C121.21 102.451 120.431 104.573 118.874 106.536C117.317 108.477 115.333 110.376 112.922 112.232H121.562V116.68H105.498V112.616ZM140.419 98.408H130.435V102.824C130.862 102.355 131.459 101.971 132.227 101.672C132.995 101.373 133.827 101.224 134.723 101.224C136.323 101.224 137.646 101.587 138.691 102.312C139.758 103.037 140.537 103.976 141.027 105.128C141.518 106.28 141.763 107.528 141.763 108.872C141.763 111.368 141.059 113.352 139.651 114.824C138.243 116.275 136.259 117 133.699 117C131.993 117 130.51 116.712 129.251 116.136C127.993 115.539 127.022 114.717 126.339 113.672C125.657 112.627 125.283 111.421 125.219 110.056H130.563C130.691 110.717 131.001 111.272 131.491 111.72C131.982 112.147 132.654 112.36 133.507 112.36C134.51 112.36 135.257 112.04 135.747 111.4C136.238 110.76 136.483 109.907 136.483 108.84C136.483 107.795 136.227 106.995 135.715 106.44C135.203 105.885 134.457 105.608 133.475 105.608C132.75 105.608 132.153 105.789 131.683 106.152C131.214 106.493 130.905 106.952 130.755 107.528H125.475V93.608H140.419V98.408ZM151.216 111.944L147.664 121.128H144.176L146.032 111.944H151.216ZM160.561 112.616C161.286 112.04 161.617 111.773 161.553 111.816C163.643 110.088 165.286 108.669 166.481 107.56C167.697 106.451 168.721 105.288 169.553 104.072C170.385 102.856 170.801 101.672 170.801 100.52C170.801 99.6453 170.598 98.9627 170.193 98.472C169.787 97.9813 169.179 97.736 168.369 97.736C167.558 97.736 166.918 98.0453 166.449 98.664C166.001 99.2613 165.777 100.115 165.777 101.224H160.497C160.539 99.4107 160.923 97.896 161.649 96.68C162.395 95.464 163.366 94.568 164.561 93.992C165.777 93.416 167.121 93.128 168.593 93.128C171.131 93.128 173.041 93.7787 174.321 95.08C175.622 96.3813 176.273 98.0773 176.273 100.168C176.273 102.451 175.494 104.573 173.937 106.536C172.379 108.477 170.395 110.376 167.985 112.232H176.625V116.68H160.561V112.616ZM179.034 105C179.034 101.331 179.738 98.44 181.146 96.328C182.575 94.216 184.868 93.16 188.026 93.16C191.183 93.16 193.466 94.216 194.874 96.328C196.303 98.44 197.018 101.331 197.018 105C197.018 108.712 196.303 111.624 194.874 113.736C193.466 115.848 191.183 116.904 188.026 116.904C184.868 116.904 182.575 115.848 181.146 113.736C179.738 111.624 179.034 108.712 179.034 105ZM191.642 105C191.642 102.845 191.407 101.192 190.938 100.04C190.468 98.8667 189.498 98.28 188.026 98.28C186.554 98.28 185.583 98.8667 185.114 100.04C184.644 101.192 184.41 102.845 184.41 105C184.41 106.451 184.495 107.656 184.666 108.616C184.836 109.555 185.178 110.323 185.69 110.92C186.223 111.496 187.002 111.784 188.026 111.784C189.05 111.784 189.818 111.496 190.33 110.92C190.863 110.323 191.215 109.555 191.386 108.616C191.556 107.656 191.642 106.451 191.642 105ZM199.717 112.616C200.442 112.04 200.773 111.773 200.709 111.816C202.799 110.088 204.442 108.669 205.637 107.56C206.853 106.451 207.877 105.288 208.709 104.072C209.541 102.856 209.957 101.672 209.957 100.52C209.957 99.6453 209.754 98.9627 209.349 98.472C208.943 97.9813 208.335 97.736 207.525 97.736C206.714 97.736 206.074 98.0453 205.605 98.664C205.157 99.2613 204.933 100.115 204.933 101.224H199.653C199.695 99.4107 200.079 97.896 200.805 96.68C201.551 95.464 202.522 94.568 203.717 93.992C204.933 93.416 206.277 93.128 207.749 93.128C210.287 93.128 212.197 93.7787 213.477 95.08C214.778 96.3813 215.429 98.0773 215.429 100.168C215.429 102.451 214.65 104.573 213.093 106.536C211.535 108.477 209.551 110.376 207.141 112.232H215.781V116.68H199.717V112.616ZM234.638 98.408H224.654V102.824C225.081 102.355 225.678 101.971 226.446 101.672C227.214 101.373 228.046 101.224 228.942 101.224C230.542 101.224 231.865 101.587 232.91 102.312C233.977 103.037 234.755 103.976 235.246 105.128C235.737 106.28 235.982 107.528 235.982 108.872C235.982 111.368 235.278 113.352 233.87 114.824C232.462 116.275 230.478 117 227.918 117C226.211 117 224.729 116.712 223.47 116.136C222.211 115.539 221.241 114.717 220.558 113.672C219.875 112.627 219.502 111.421 219.438 110.056H224.782C224.91 110.717 225.219 111.272 225.71 111.72C226.201 112.147 226.873 112.36 227.726 112.36C228.729 112.36 229.475 112.04 229.966 111.4C230.457 110.76 230.702 109.907 230.702 108.84C230.702 107.795 230.446 106.995 229.934 106.44C229.422 105.885 228.675 105.608 227.694 105.608C226.969 105.608 226.371 105.789 225.902 106.152C225.433 106.493 225.123 106.952 224.974 107.528H219.694V93.608H234.638V98.408Z" fill="black"/>
<path d="M34.08 149V146.504H39.072V164H36.312V149H34.08ZM42.4706 149V146.504H47.4626V164H44.7026V149H42.4706ZM52.6853 164.168C52.1893 164.168 51.7733 164 51.4373 163.664C51.1013 163.328 50.9333 162.912 50.9333 162.416C50.9333 161.92 51.1013 161.504 51.4373 161.168C51.7733 160.832 52.1893 160.664 52.6853 160.664C53.1653 160.664 53.5733 160.832 53.9093 161.168C54.2453 161.504 54.4133 161.92 54.4133 162.416C54.4133 162.912 54.2453 163.328 53.9093 163.664C53.5733 164 53.1653 164.168 52.6853 164.168ZM52.6853 154.088C52.1893 154.088 51.7733 153.92 51.4373 153.584C51.1013 153.248 50.9333 152.832 50.9333 152.336C50.9333 151.84 51.1013 151.424 51.4373 151.088C51.7733 150.752 52.1893 150.584 52.6853 150.584C53.1653 150.584 53.5733 150.752 53.9093 151.088C54.2453 151.424 54.4133 151.84 54.4133 152.336C54.4133 152.832 54.2453 153.248 53.9093 153.584C53.5733 153.92 53.1653 154.088 52.6853 154.088ZM68.3841 148.856H60.3441V153.632C60.6801 153.184 61.1761 152.808 61.8321 152.504C62.5041 152.2 63.2161 152.048 63.9681 152.048C65.3121 152.048 66.4001 152.336 67.2321 152.912C68.0801 153.488 68.6801 154.216 69.0321 155.096C69.4001 155.976 69.5841 156.904 69.5841 157.88C69.5841 159.064 69.3521 160.12 68.8881 161.048C68.4401 161.96 67.7601 162.68 66.8481 163.208C65.9521 163.736 64.8481 164 63.5361 164C61.7921 164 60.3921 163.568 59.3361 162.704C58.2801 161.84 57.6481 160.696 57.4401 159.272H60.1041C60.2801 160.024 60.6721 160.624 61.2801 161.072C61.8881 161.504 62.6481 161.72 63.5601 161.72C64.6961 161.72 65.5441 161.376 66.1041 160.688C66.6801 160 66.9681 159.088 66.9681 157.952C66.9681 156.8 66.6801 155.92 66.1041 155.312C65.5281 154.688 64.6801 154.376 63.5601 154.376C62.7761 154.376 62.1121 154.576 61.5681 154.976C61.0401 155.36 60.6561 155.888 60.4161 156.56H57.8241V146.456H68.3841V148.856ZM75.8402 159.248C76.0002 160.048 76.3442 160.656 76.8722 161.072C77.4002 161.488 78.1122 161.696 79.0082 161.696C80.1442 161.696 80.9762 161.248 81.5042 160.352C82.0322 159.456 82.2962 157.928 82.2962 155.768C81.9122 156.312 81.3682 156.736 80.6642 157.04C79.9762 157.328 79.2242 157.472 78.4082 157.472C77.3682 157.472 76.4242 157.264 75.5762 156.848C74.7282 156.416 74.0562 155.784 73.5602 154.952C73.0802 154.104 72.8402 153.08 72.8402 151.88C72.8402 150.12 73.3522 148.72 74.3762 147.68C75.4162 146.624 76.8402 146.096 78.6482 146.096C80.8242 146.096 82.3682 146.824 83.2802 148.28C84.2082 149.72 84.6722 151.936 84.6722 154.928C84.6722 156.992 84.4962 158.68 84.1442 159.992C83.8082 161.304 83.2162 162.296 82.3682 162.968C81.5202 163.64 80.3442 163.976 78.8402 163.976C77.1282 163.976 75.8082 163.528 74.8802 162.632C73.9522 161.736 73.4322 160.608 73.3202 159.248H75.8402ZM78.8882 155.168C79.8482 155.168 80.6002 154.872 81.1442 154.28C81.7042 153.672 81.9842 152.872 81.9842 151.88C81.9842 150.776 81.6882 149.92 81.0962 149.312C80.5202 148.688 79.7282 148.376 78.7202 148.376C77.7122 148.376 76.9122 148.696 76.3202 149.336C75.7442 149.96 75.4562 150.784 75.4562 151.808C75.4562 152.784 75.7362 153.592 76.2962 154.232C76.8722 154.856 77.7362 155.168 78.8882 155.168ZM105.925 152.288C105.925 153.136 105.725 153.936 105.325 154.688C104.925 155.44 104.285 156.056 103.405 156.536C102.525 157 101.397 157.232 100.021 157.232H96.9969V164H94.2609V147.32H100.021C101.301 147.32 102.381 147.544 103.261 147.992C104.157 148.424 104.821 149.016 105.253 149.768C105.701 150.52 105.925 151.36 105.925 152.288ZM100.021 155C101.061 155 101.837 154.768 102.349 154.304C102.861 153.824 103.117 153.152 103.117 152.288C103.117 150.464 102.085 149.552 100.021 149.552H96.9969V155H100.021ZM126.102 147.32V164H123.366V152.576L118.278 164H116.382L111.27 152.576V164H108.534V147.32H111.486L117.342 160.4L123.174 147.32H126.102Z" fill="black"/>
<path d="M40.48 232.1V233.96H36.78V246H34.5V233.96H30.78V232.1H40.48ZM43.9491 233.52C43.5357 233.52 43.1891 233.38 42.9091 233.1C42.6291 232.82 42.4891 232.473 42.4891 232.06C42.4891 231.647 42.6291 231.3 42.9091 231.02C43.1891 230.74 43.5357 230.6 43.9491 230.6C44.3491 230.6 44.6891 230.74 44.9691 231.02C45.2491 231.3 45.3891 231.647 45.3891 232.06C45.3891 232.473 45.2491 232.82 44.9691 233.1C44.6891 233.38 44.3491 233.52 43.9491 233.52ZM45.0691 234.98V246H42.7891V234.98H45.0691ZM61.4025 234.8C62.2692 234.8 63.0425 234.98 63.7225 235.34C64.4158 235.7 64.9558 236.233 65.3425 236.94C65.7425 237.647 65.9425 238.5 65.9425 239.5V246H63.6825V239.84C63.6825 238.853 63.4358 238.1 62.9425 237.58C62.4492 237.047 61.7758 236.78 60.9225 236.78C60.0692 236.78 59.3892 237.047 58.8825 237.58C58.3892 238.1 58.1425 238.853 58.1425 239.84V246H55.8825V239.84C55.8825 238.853 55.6358 238.1 55.1425 237.58C54.6492 237.047 53.9758 236.78 53.1225 236.78C52.2692 236.78 51.5892 237.047 51.0825 237.58C50.5892 238.1 50.3425 238.853 50.3425 239.84V246H48.0625V234.98H50.3425V236.24C50.7158 235.787 51.1892 235.433 51.7625 235.18C52.3358 234.927 52.9492 234.8 53.6025 234.8C54.4825 234.8 55.2692 234.987 55.9625 235.36C56.6558 235.733 57.1892 236.273 57.5625 236.98C57.8958 236.313 58.4158 235.787 59.1225 235.4C59.8292 235 60.5892 234.8 61.4025 234.8ZM78.9438 240.22C78.9438 240.633 78.9171 241.007 78.8638 241.34H70.4438C70.5104 242.22 70.8371 242.927 71.4238 243.46C72.0104 243.993 72.7304 244.26 73.5838 244.26C74.8104 244.26 75.6771 243.747 76.1838 242.72H78.6437C78.3104 243.733 77.7038 244.567 76.8238 245.22C75.9571 245.86 74.8771 246.18 73.5838 246.18C72.5304 246.18 71.5838 245.947 70.7438 245.48C69.9171 245 69.2638 244.333 68.7838 243.48C68.3171 242.613 68.0838 241.613 68.0838 240.48C68.0838 239.347 68.3104 238.353 68.7638 237.5C69.2304 236.633 69.8771 235.967 70.7038 235.5C71.5438 235.033 72.5038 234.8 73.5838 234.8C74.6238 234.8 75.5504 235.027 76.3638 235.48C77.1771 235.933 77.8104 236.573 78.2638 237.4C78.7171 238.213 78.9438 239.153 78.9438 240.22ZM76.5638 239.5C76.5504 238.66 76.2504 237.987 75.6638 237.48C75.0771 236.973 74.3504 236.72 73.4838 236.72C72.6971 236.72 72.0238 236.973 71.4638 237.48C70.9038 237.973 70.5704 238.647 70.4638 239.5H76.5638ZM88.6628 236.58C88.9961 236.02 89.4361 235.587 89.9828 235.28C90.5428 234.96 91.2028 234.8 91.9628 234.8V237.16H91.3828C90.4895 237.16 89.8095 237.387 89.3428 237.84C88.8895 238.293 88.6628 239.08 88.6628 240.2V246H86.3828V234.98H88.6628V236.58ZM104.159 240.22C104.159 240.633 104.132 241.007 104.079 241.34H95.6586C95.7253 242.22 96.0519 242.927 96.6386 243.46C97.2253 243.993 97.9453 244.26 98.7986 244.26C100.025 244.26 100.892 243.747 101.399 242.72H103.859C103.525 243.733 102.919 244.567 102.039 245.22C101.172 245.86 100.092 246.18 98.7986 246.18C97.7453 246.18 96.7986 245.947 95.9586 245.48C95.1319 245 94.4786 244.333 93.9986 243.48C93.5319 242.613 93.2986 241.613 93.2986 240.48C93.2986 239.347 93.5253 238.353 93.9786 237.5C94.4453 236.633 95.0919 235.967 95.9186 235.5C96.7586 235.033 97.7186 234.8 98.7986 234.8C99.8386 234.8 100.765 235.027 101.579 235.48C102.392 235.933 103.025 236.573 103.479 237.4C103.932 238.213 104.159 239.153 104.159 240.22ZM101.779 239.5C101.765 238.66 101.465 237.987 100.879 237.48C100.292 236.973 99.5653 236.72 98.6986 236.72C97.9119 236.72 97.2386 236.973 96.6786 237.48C96.1186 237.973 95.7853 238.647 95.6786 239.5H101.779ZM119.742 234.8C120.609 234.8 121.382 234.98 122.062 235.34C122.756 235.7 123.296 236.233 123.682 236.94C124.082 237.647 124.282 238.5 124.282 239.5V246H122.022V239.84C122.022 238.853 121.776 238.1 121.282 237.58C120.789 237.047 120.116 236.78 119.262 236.78C118.409 236.78 117.729 237.047 117.222 237.58C116.729 238.1 116.482 238.853 116.482 239.84V246H114.222V239.84C114.222 238.853 113.976 238.1 113.482 237.58C112.989 237.047 112.316 236.78 111.462 236.78C110.609 236.78 109.929 237.047 109.422 237.58C108.929 238.1 108.682 238.853 108.682 239.84V246H106.402V234.98H108.682V236.24C109.056 235.787 109.529 235.433 110.102 235.18C110.676 234.927 111.289 234.8 111.942 234.8C112.822 234.8 113.609 234.987 114.302 235.36C114.996 235.733 115.529 236.273 115.902 236.98C116.236 236.313 116.756 235.787 117.462 235.4C118.169 235 118.929 234.8 119.742 234.8ZM126.424 240.44C126.424 239.333 126.65 238.353 127.104 237.5C127.57 236.647 128.197 235.987 128.984 235.52C129.784 235.04 130.664 234.8 131.624 234.8C132.49 234.8 133.244 234.973 133.884 235.32C134.537 235.653 135.057 236.073 135.444 236.58V234.98H137.744V246H135.444V244.36C135.057 244.88 134.53 245.313 133.864 245.66C133.197 246.007 132.437 246.18 131.584 246.18C130.637 246.18 129.77 245.94 128.984 245.46C128.197 244.967 127.57 244.287 127.104 243.42C126.65 242.54 126.424 241.547 126.424 240.44ZM135.444 240.48C135.444 239.72 135.284 239.06 134.964 238.5C134.657 237.94 134.25 237.513 133.744 237.22C133.237 236.927 132.69 236.78 132.104 236.78C131.517 236.78 130.97 236.927 130.464 237.22C129.957 237.5 129.544 237.92 129.224 238.48C128.917 239.027 128.764 239.68 128.764 240.44C128.764 241.2 128.917 241.867 129.224 242.44C129.544 243.013 129.957 243.453 130.464 243.76C130.984 244.053 131.53 244.2 132.104 244.2C132.69 244.2 133.237 244.053 133.744 243.76C134.25 243.467 134.657 243.04 134.964 242.48C135.284 241.907 135.444 241.24 135.444 240.48ZM141.898 233.52C141.485 233.52 141.138 233.38 140.858 233.1C140.578 232.82 140.438 232.473 140.438 232.06C140.438 231.647 140.578 231.3 140.858 231.02C141.138 230.74 141.485 230.6 141.898 230.6C142.298 230.6 142.638 230.74 142.918 231.02C143.198 231.3 143.338 231.647 143.338 232.06C143.338 232.473 143.198 232.82 142.918 233.1C142.638 233.38 142.298 233.52 141.898 233.52ZM143.018 234.98V246H140.738V234.98H143.018ZM151.572 234.8C152.438 234.8 153.212 234.98 153.892 235.34C154.585 235.7 155.125 236.233 155.512 236.94C155.898 237.647 156.092 238.5 156.092 239.5V246H153.832V239.84C153.832 238.853 153.585 238.1 153.092 237.58C152.598 237.047 151.925 236.78 151.072 236.78C150.218 236.78 149.538 237.047 149.032 237.58C148.538 238.1 148.292 238.853 148.292 239.84V246H146.012V234.98H148.292V236.24C148.665 235.787 149.138 235.433 149.712 235.18C150.298 234.927 150.918 234.8 151.572 234.8ZM160.16 233.52C159.747 233.52 159.4 233.38 159.12 233.1C158.84 232.82 158.7 232.473 158.7 232.06C158.7 231.647 158.84 231.3 159.12 231.02C159.4 230.74 159.747 230.6 160.16 230.6C160.56 230.6 160.9 230.74 161.18 231.02C161.46 231.3 161.6 231.647 161.6 232.06C161.6 232.473 161.46 232.82 161.18 233.1C160.9 233.38 160.56 233.52 160.16 233.52ZM161.28 234.98V246H159V234.98H161.28ZM169.833 234.8C170.7 234.8 171.473 234.98 172.153 235.34C172.847 235.7 173.387 236.233 173.773 236.94C174.16 237.647 174.353 238.5 174.353 239.5V246H172.093V239.84C172.093 238.853 171.847 238.1 171.353 237.58C170.86 237.047 170.187 236.78 169.333 236.78C168.48 236.78 167.8 237.047 167.293 237.58C166.8 238.1 166.553 238.853 166.553 239.84V246H164.273V234.98H166.553V236.24C166.927 235.787 167.4 235.433 167.973 235.18C168.56 234.927 169.18 234.8 169.833 234.8ZM181.702 234.8C182.555 234.8 183.308 234.973 183.962 235.32C184.628 235.653 185.148 236.073 185.522 236.58V234.98H187.822V246.18C187.822 247.193 187.608 248.093 187.182 248.88C186.755 249.68 186.135 250.307 185.322 250.76C184.522 251.213 183.562 251.44 182.442 251.44C180.948 251.44 179.708 251.087 178.722 250.38C177.735 249.687 177.175 248.74 177.042 247.54H179.302C179.475 248.113 179.842 248.573 180.402 248.92C180.975 249.28 181.655 249.46 182.442 249.46C183.362 249.46 184.102 249.18 184.662 248.62C185.235 248.06 185.522 247.247 185.522 246.18V244.34C185.135 244.86 184.608 245.3 183.942 245.66C183.288 246.007 182.542 246.18 181.702 246.18C180.742 246.18 179.862 245.94 179.062 245.46C178.275 244.967 177.648 244.287 177.182 243.42C176.728 242.54 176.502 241.547 176.502 240.44C176.502 239.333 176.728 238.353 177.182 237.5C177.648 236.647 178.275 235.987 179.062 235.52C179.862 235.04 180.742 234.8 181.702 234.8ZM185.522 240.48C185.522 239.72 185.362 239.06 185.042 238.5C184.735 237.94 184.328 237.513 183.822 237.22C183.315 236.927 182.768 236.78 182.182 236.78C181.595 236.78 181.048 236.927 180.542 237.22C180.035 237.5 179.622 237.92 179.302 238.48C178.995 239.027 178.842 239.68 178.842 240.44C178.842 241.2 178.995 241.867 179.302 242.44C179.622 243.013 180.035 243.453 180.542 243.76C181.062 244.053 181.608 244.2 182.182 244.2C182.768 244.2 183.315 244.053 183.822 243.76C184.328 243.467 184.735 243.04 185.042 242.48C185.362 241.907 185.522 241.24 185.522 240.48ZM191.736 246.14C191.323 246.14 190.976 246 190.696 245.72C190.416 245.44 190.276 245.093 190.276 244.68C190.276 244.267 190.416 243.92 190.696 243.64C190.976 243.36 191.323 243.22 191.736 243.22C192.136 243.22 192.476 243.36 192.756 243.64C193.036 243.92 193.176 244.267 193.176 244.68C193.176 245.093 193.036 245.44 192.756 245.72C192.476 246 192.136 246.14 191.736 246.14ZM191.736 237.74C191.323 237.74 190.976 237.6 190.696 237.32C190.416 237.04 190.276 236.693 190.276 236.28C190.276 235.867 190.416 235.52 190.696 235.24C190.976 234.96 191.323 234.82 191.736 234.82C192.136 234.82 192.476 234.96 192.756 235.24C193.036 235.52 193.176 235.867 193.176 236.28C193.176 236.693 193.036 237.04 192.756 237.32C192.476 237.6 192.136 237.74 191.736 237.74ZM200.574 235.02C200.654 233.78 201.127 232.813 201.994 232.12C202.874 231.427 203.994 231.08 205.354 231.08C206.287 231.08 207.094 231.247 207.774 231.58C208.454 231.913 208.967 232.367 209.314 232.94C209.661 233.513 209.834 234.16 209.834 234.88C209.834 235.707 209.614 236.413 209.174 237C208.734 237.587 208.207 237.98 207.594 238.18V238.26C208.381 238.5 208.994 238.94 209.434 239.58C209.874 240.207 210.094 241.013 210.094 242C210.094 242.787 209.914 243.487 209.554 244.1C209.194 244.713 208.661 245.2 207.954 245.56C207.247 245.907 206.401 246.08 205.414 246.08C203.974 246.08 202.787 245.713 201.854 244.98C200.934 244.233 200.441 243.167 200.374 241.78H202.574C202.627 242.487 202.901 243.067 203.394 243.52C203.887 243.96 204.554 244.18 205.394 244.18C206.207 244.18 206.834 243.96 207.274 243.52C207.714 243.067 207.934 242.487 207.934 241.78C207.934 240.847 207.634 240.187 207.034 239.8C206.447 239.4 205.541 239.2 204.314 239.2H203.794V237.32H204.334C205.414 237.307 206.234 237.127 206.794 236.78C207.367 236.433 207.654 235.887 207.654 235.14C207.654 234.5 207.447 233.993 207.034 233.62C206.621 233.233 206.034 233.04 205.274 233.04C204.527 233.04 203.947 233.233 203.534 233.62C203.121 233.993 202.874 234.46 202.794 235.02H200.574ZM222.524 232.1C224.004 232.1 225.298 232.387 226.404 232.96C227.524 233.52 228.384 234.333 228.984 235.4C229.598 236.453 229.904 237.687 229.904 239.1C229.904 240.513 229.598 241.74 228.984 242.78C228.384 243.82 227.524 244.62 226.404 245.18C225.298 245.727 224.004 246 222.524 246H217.984V232.1H222.524ZM222.524 244.14C224.151 244.14 225.398 243.7 226.264 242.82C227.131 241.94 227.564 240.7 227.564 239.1C227.564 237.487 227.131 236.227 226.264 235.32C225.398 234.413 224.151 233.96 222.524 233.96H220.264V244.14H222.524ZM231.404 240.44C231.404 239.333 231.631 238.353 232.084 237.5C232.551 236.647 233.177 235.987 233.964 235.52C234.764 235.04 235.644 234.8 236.604 234.8C237.471 234.8 238.224 234.973 238.864 235.32C239.517 235.653 240.037 236.073 240.424 236.58V234.98H242.724V246H240.424V244.36C240.037 244.88 239.511 245.313 238.844 245.66C238.177 246.007 237.417 246.18 236.564 246.18C235.617 246.18 234.751 245.94 233.964 245.46C233.177 244.967 232.551 244.287 232.084 243.42C231.631 242.54 231.404 241.547 231.404 240.44ZM240.424 240.48C240.424 239.72 240.264 239.06 239.944 238.5C239.637 237.94 239.231 237.513 238.724 237.22C238.217 236.927 237.671 236.78 237.084 236.78C236.497 236.78 235.951 236.927 235.444 237.22C234.937 237.5 234.524 237.92 234.204 238.48C233.897 239.027 233.744 239.68 233.744 240.44C233.744 241.2 233.897 241.867 234.204 242.44C234.524 243.013 234.937 243.453 235.444 243.76C235.964 244.053 236.511 244.2 237.084 244.2C237.671 244.2 238.217 244.053 238.724 243.76C239.231 243.467 239.637 243.04 239.944 242.48C240.264 241.907 240.424 241.24 240.424 240.48ZM255.639 234.98L248.879 251.18H246.519L248.759 245.82L244.419 234.98H246.959L250.059 243.38L253.279 234.98H255.639ZM261.359 246.18C260.493 246.18 259.713 246.027 259.019 245.72C258.339 245.4 257.799 244.973 257.399 244.44C256.999 243.893 256.786 243.287 256.759 242.62H259.119C259.159 243.087 259.379 243.48 259.779 243.8C260.193 244.107 260.706 244.26 261.319 244.26C261.959 244.26 262.453 244.14 262.799 243.9C263.159 243.647 263.339 243.327 263.339 242.94C263.339 242.527 263.139 242.22 262.739 242.02C262.353 241.82 261.733 241.6 260.879 241.36C260.053 241.133 259.379 240.913 258.859 240.7C258.339 240.487 257.886 240.16 257.499 239.72C257.126 239.28 256.939 238.7 256.939 237.98C256.939 237.393 257.113 236.86 257.459 236.38C257.806 235.887 258.299 235.5 258.939 235.22C259.593 234.94 260.339 234.8 261.179 234.8C262.433 234.8 263.439 235.12 264.199 235.76C264.973 236.387 265.386 237.247 265.439 238.34H263.159C263.119 237.847 262.919 237.453 262.559 237.16C262.199 236.867 261.713 236.72 261.099 236.72C260.499 236.72 260.039 236.833 259.719 237.06C259.399 237.287 259.239 237.587 259.239 237.96C259.239 238.253 259.346 238.5 259.559 238.7C259.773 238.9 260.033 239.06 260.339 239.18C260.646 239.287 261.099 239.427 261.699 239.6C262.499 239.813 263.153 240.033 263.659 240.26C264.179 240.473 264.626 240.793 264.999 241.22C265.373 241.647 265.566 242.213 265.579 242.92C265.579 243.547 265.406 244.107 265.059 244.6C264.713 245.093 264.219 245.48 263.579 245.76C262.953 246.04 262.213 246.18 261.359 246.18ZM270.543 243.26L268.123 248.78H266.643L268.063 243.26H270.543ZM277.13 233.5V231.42H281.29V246H278.99V233.5H277.13ZM293.823 233.38H287.123V237.36C287.403 236.987 287.816 236.673 288.363 236.42C288.923 236.167 289.516 236.04 290.143 236.04C291.263 236.04 292.169 236.28 292.863 236.76C293.569 237.24 294.069 237.847 294.363 238.58C294.669 239.313 294.823 240.087 294.823 240.9C294.823 241.887 294.629 242.767 294.243 243.54C293.869 244.3 293.303 244.9 292.543 245.34C291.796 245.78 290.876 246 289.783 246C288.329 246 287.163 245.64 286.283 244.92C285.403 244.2 284.876 243.247 284.703 242.06H286.923C287.069 242.687 287.396 243.187 287.903 243.56C288.409 243.92 289.043 244.1 289.803 244.1C290.749 244.1 291.456 243.813 291.923 243.24C292.403 242.667 292.643 241.907 292.643 240.96C292.643 240 292.403 239.267 291.923 238.76C291.443 238.24 290.736 237.98 289.803 237.98C289.149 237.98 288.596 238.147 288.143 238.48C287.703 238.8 287.383 239.24 287.183 239.8H285.023V231.38H293.823V233.38ZM308.391 234.8C309.231 234.8 309.978 234.98 310.631 235.34C311.298 235.7 311.818 236.233 312.191 236.94C312.578 237.647 312.771 238.5 312.771 239.5V246H310.511V239.84C310.511 238.853 310.265 238.1 309.771 237.58C309.278 237.047 308.605 236.78 307.751 236.78C306.898 236.78 306.218 237.047 305.711 237.58C305.218 238.1 304.971 238.853 304.971 239.84V246H302.691V231.2H304.971V236.26C305.358 235.793 305.845 235.433 306.431 235.18C307.031 234.927 307.685 234.8 308.391 234.8ZM320.46 246.18C319.42 246.18 318.48 245.947 317.64 245.48C316.8 245 316.14 244.333 315.66 243.48C315.18 242.613 314.94 241.613 314.94 240.48C314.94 239.36 315.186 238.367 315.68 237.5C316.173 236.633 316.846 235.967 317.7 235.5C318.553 235.033 319.506 234.8 320.56 234.8C321.613 234.8 322.566 235.033 323.42 235.5C324.273 235.967 324.946 236.633 325.44 237.5C325.933 238.367 326.18 239.36 326.18 240.48C326.18 241.6 325.926 242.593 325.42 243.46C324.913 244.327 324.22 245 323.34 245.48C322.473 245.947 321.513 246.18 320.46 246.18ZM320.46 244.2C321.046 244.2 321.593 244.06 322.1 243.78C322.62 243.5 323.04 243.08 323.36 242.52C323.68 241.96 323.84 241.28 323.84 240.48C323.84 239.68 323.686 239.007 323.38 238.46C323.073 237.9 322.666 237.48 322.16 237.2C321.653 236.92 321.106 236.78 320.52 236.78C319.933 236.78 319.386 236.92 318.88 237.2C318.386 237.48 317.993 237.9 317.7 238.46C317.406 239.007 317.26 239.68 317.26 240.48C317.26 241.667 317.56 242.587 318.16 243.24C318.773 243.88 319.54 244.2 320.46 244.2ZM338.414 234.98V246H336.134V244.7C335.774 245.153 335.3 245.513 334.714 245.78C334.14 246.033 333.527 246.16 332.874 246.16C332.007 246.16 331.227 245.98 330.534 245.62C329.854 245.26 329.314 244.727 328.914 244.02C328.527 243.313 328.334 242.46 328.334 241.46V234.98H330.594V241.12C330.594 242.107 330.84 242.867 331.334 243.4C331.827 243.92 332.5 244.18 333.354 244.18C334.207 244.18 334.88 243.92 335.374 243.4C335.88 242.867 336.134 242.107 336.134 241.12V234.98H338.414ZM343.702 236.58C344.035 236.02 344.475 235.587 345.022 235.28C345.582 234.96 346.242 234.8 347.002 234.8V237.16H346.422C345.529 237.16 344.849 237.387 344.382 237.84C343.929 238.293 343.702 239.08 343.702 240.2V246H341.422V234.98H343.702V236.58ZM353.098 246.18C352.231 246.18 351.451 246.027 350.758 245.72C350.078 245.4 349.538 244.973 349.138 244.44C348.738 243.893 348.524 243.287 348.498 242.62H350.858C350.898 243.087 351.118 243.48 351.518 243.8C351.931 244.107 352.444 244.26 353.058 244.26C353.698 244.26 354.191 244.14 354.538 243.9C354.898 243.647 355.078 243.327 355.078 242.94C355.078 242.527 354.878 242.22 354.478 242.02C354.091 241.82 353.471 241.6 352.618 241.36C351.791 241.133 351.118 240.913 350.598 240.7C350.078 240.487 349.624 240.16 349.238 239.72C348.864 239.28 348.678 238.7 348.678 237.98C348.678 237.393 348.851 236.86 349.198 236.38C349.544 235.887 350.038 235.5 350.678 235.22C351.331 234.94 352.078 234.8 352.918 234.8C354.171 234.8 355.178 235.12 355.938 235.76C356.711 236.387 357.124 237.247 357.178 238.34H354.898C354.858 237.847 354.658 237.453 354.298 237.16C353.938 236.867 353.451 236.72 352.838 236.72C352.238 236.72 351.778 236.833 351.458 237.06C351.138 237.287 350.978 237.587 350.978 237.96C350.978 238.253 351.084 238.5 351.298 238.7C351.511 238.9 351.771 239.06 352.078 239.18C352.384 239.287 352.838 239.427 353.438 239.6C354.238 239.813 354.891 240.033 355.398 240.26C355.918 240.473 356.364 240.793 356.738 241.22C357.111 241.647 357.304 242.213 357.318 242.92C357.318 243.547 357.144 244.107 356.798 244.6C356.451 245.093 355.958 245.48 355.318 245.76C354.691 246.04 353.951 246.18 353.098 246.18Z" fill="black"/>
<line x1="30.5" y1="203.5" x2="422.5" y2="203.5" stroke="black" stroke-opacity="0.44" stroke-linecap="round"/>
</g>
<defs>
<filter id="filter0_d_1209_15653" x="-12" y="-8" width="477" height="316" filterUnits="userSpaceOnUse" color-interpolation-filters="sRGB">
<feFlood flood-opacity="0" result="BackgroundImageFix"/>
<feColorMatrix in="SourceAlpha" type="matrix" values="0 0 0 0 0 0 0 0 0 0 0 0 0 0 0 0 0 0 127 0" result="hardAlpha"/>
<feOffset dy="4"/>
<feGaussianBlur stdDeviation="6"/>
<feComposite in2="hardAlpha" operator="out"/>
<feColorMatrix type="matrix" values="0 0 0 0 0 0 0 0 0 0 0 0 0 0 0 0 0 0 0.22 0"/>
<feBlend mode="normal" in2="BackgroundImageFix" result="effect1_dropShadow_1209_15653"/>
<feBlend mode="normal" in="SourceGraphic" in2="effect1_dropShadow_1209_15653" result="shape"/>
</filter>
<clipPath id="clip0_1209_15653">
<rect width="453" height="292" fill="white"/>
</clipPath>
</defs>
</svg>
